<mxfile host="app.diagrams.net" modified="2023-06-02T00:29:33.312Z" agent="Mozilla/5.0 (Windows NT 10.0; Win64; x64) AppleWebKit/537.36 (KHTML, like Gecko) Chrome/113.0.0.0 Safari/537.36" etag="k8lkznW9HLd8GdHnCf7h" version="21.3.7">
  <diagram name="Page-1" id="fFYF7FiAffCrJsXv-SiB">
    <mxGraphModel dx="792" dy="1142" grid="1" gridSize="10" guides="1" tooltips="1" connect="1" arrows="1" fold="1" page="1" pageScale="1" pageWidth="850" pageHeight="1100" math="0" shadow="0">
      <root>
        <mxCell id="0" />
        <mxCell id="1" parent="0" />
        <mxCell id="oFoH9oFWts9TdxYfZ8au-1" value="1" style="ellipse;whiteSpace=wrap;html=1;aspect=fixed;" vertex="1" parent="1">
          <mxGeometry x="80" y="350" width="80" height="80" as="geometry" />
        </mxCell>
        <mxCell id="oFoH9oFWts9TdxYfZ8au-2" value="2" style="ellipse;whiteSpace=wrap;html=1;aspect=fixed;" vertex="1" parent="1">
          <mxGeometry x="250" y="350" width="80" height="80" as="geometry" />
        </mxCell>
        <mxCell id="oFoH9oFWts9TdxYfZ8au-3" value="3" style="ellipse;whiteSpace=wrap;html=1;aspect=fixed;" vertex="1" parent="1">
          <mxGeometry x="250" y="510" width="80" height="80" as="geometry" />
        </mxCell>
        <mxCell id="oFoH9oFWts9TdxYfZ8au-4" value="4" style="ellipse;whiteSpace=wrap;html=1;aspect=fixed;" vertex="1" parent="1">
          <mxGeometry x="385" y="510" width="80" height="80" as="geometry" />
        </mxCell>
        <mxCell id="oFoH9oFWts9TdxYfZ8au-5" value="5" style="ellipse;whiteSpace=wrap;html=1;aspect=fixed;" vertex="1" parent="1">
          <mxGeometry x="250" y="670" width="80" height="80" as="geometry" />
        </mxCell>
        <mxCell id="oFoH9oFWts9TdxYfZ8au-10" value="" style="endArrow=classic;html=1;rounded=0;exitX=1;exitY=1;exitDx=0;exitDy=0;entryX=0;entryY=0;entryDx=0;entryDy=0;" edge="1" parent="1" source="oFoH9oFWts9TdxYfZ8au-1" target="oFoH9oFWts9TdxYfZ8au-3">
          <mxGeometry relative="1" as="geometry">
            <mxPoint x="150" y="350" as="sourcePoint" />
            <mxPoint x="262" y="768" as="targetPoint" />
          </mxGeometry>
        </mxCell>
        <mxCell id="oFoH9oFWts9TdxYfZ8au-11" value="Car" style="edgeLabel;resizable=0;html=1;align=center;verticalAlign=middle;" connectable="0" vertex="1" parent="oFoH9oFWts9TdxYfZ8au-10">
          <mxGeometry relative="1" as="geometry" />
        </mxCell>
        <mxCell id="oFoH9oFWts9TdxYfZ8au-13" value="" style="endArrow=classic;html=1;rounded=0;entryX=0;entryY=0.5;entryDx=0;entryDy=0;exitX=1;exitY=0.5;exitDx=0;exitDy=0;" edge="1" parent="1" source="oFoH9oFWts9TdxYfZ8au-1" target="oFoH9oFWts9TdxYfZ8au-2">
          <mxGeometry relative="1" as="geometry">
            <mxPoint x="158" y="372" as="sourcePoint" />
            <mxPoint x="702" y="158" as="targetPoint" />
          </mxGeometry>
        </mxCell>
        <mxCell id="oFoH9oFWts9TdxYfZ8au-14" value="Car" style="edgeLabel;resizable=0;html=1;align=center;verticalAlign=middle;" connectable="0" vertex="1" parent="oFoH9oFWts9TdxYfZ8au-13">
          <mxGeometry relative="1" as="geometry" />
        </mxCell>
        <mxCell id="oFoH9oFWts9TdxYfZ8au-16" value="" style="endArrow=classic;html=1;rounded=0;exitX=0.5;exitY=1;exitDx=0;exitDy=0;entryX=0.5;entryY=0;entryDx=0;entryDy=0;" edge="1" parent="1" source="oFoH9oFWts9TdxYfZ8au-2" target="oFoH9oFWts9TdxYfZ8au-3">
          <mxGeometry relative="1" as="geometry">
            <mxPoint x="340" y="389.5" as="sourcePoint" />
            <mxPoint x="310" y="520" as="targetPoint" />
          </mxGeometry>
        </mxCell>
        <mxCell id="oFoH9oFWts9TdxYfZ8au-17" value="Car" style="edgeLabel;resizable=0;html=1;align=center;verticalAlign=middle;" connectable="0" vertex="1" parent="oFoH9oFWts9TdxYfZ8au-16">
          <mxGeometry relative="1" as="geometry" />
        </mxCell>
        <mxCell id="oFoH9oFWts9TdxYfZ8au-18" value="" style="endArrow=classic;html=1;rounded=0;exitX=1;exitY=0.5;exitDx=0;exitDy=0;entryX=0.5;entryY=0;entryDx=0;entryDy=0;" edge="1" parent="1" source="oFoH9oFWts9TdxYfZ8au-2" target="oFoH9oFWts9TdxYfZ8au-4">
          <mxGeometry relative="1" as="geometry">
            <mxPoint x="420" y="430" as="sourcePoint" />
            <mxPoint x="420" y="510" as="targetPoint" />
          </mxGeometry>
        </mxCell>
        <mxCell id="oFoH9oFWts9TdxYfZ8au-19" value="Car" style="edgeLabel;resizable=0;html=1;align=center;verticalAlign=middle;" connectable="0" vertex="1" parent="oFoH9oFWts9TdxYfZ8au-18">
          <mxGeometry relative="1" as="geometry" />
        </mxCell>
        <mxCell id="oFoH9oFWts9TdxYfZ8au-20" value="" style="endArrow=classic;html=1;rounded=0;exitX=1;exitY=0.5;exitDx=0;exitDy=0;entryX=0;entryY=0.5;entryDx=0;entryDy=0;" edge="1" parent="1" source="oFoH9oFWts9TdxYfZ8au-3" target="oFoH9oFWts9TdxYfZ8au-4">
          <mxGeometry relative="1" as="geometry">
            <mxPoint x="360" y="550" as="sourcePoint" />
            <mxPoint x="360" y="630" as="targetPoint" />
          </mxGeometry>
        </mxCell>
        <mxCell id="oFoH9oFWts9TdxYfZ8au-21" value="Car" style="edgeLabel;resizable=0;html=1;align=center;verticalAlign=middle;" connectable="0" vertex="1" parent="oFoH9oFWts9TdxYfZ8au-20">
          <mxGeometry relative="1" as="geometry" />
        </mxCell>
        <mxCell id="oFoH9oFWts9TdxYfZ8au-22" value="" style="endArrow=classic;html=1;rounded=0;exitX=0;exitY=1;exitDx=0;exitDy=0;entryX=1;entryY=0;entryDx=0;entryDy=0;" edge="1" parent="1" source="oFoH9oFWts9TdxYfZ8au-4" target="oFoH9oFWts9TdxYfZ8au-5">
          <mxGeometry relative="1" as="geometry">
            <mxPoint x="320" y="460" as="sourcePoint" />
            <mxPoint x="320" y="540" as="targetPoint" />
          </mxGeometry>
        </mxCell>
        <mxCell id="oFoH9oFWts9TdxYfZ8au-23" value="Car" style="edgeLabel;resizable=0;html=1;align=center;verticalAlign=middle;" connectable="0" vertex="1" parent="oFoH9oFWts9TdxYfZ8au-22">
          <mxGeometry relative="1" as="geometry" />
        </mxCell>
        <mxCell id="oFoH9oFWts9TdxYfZ8au-24" value="" style="endArrow=classic;html=1;rounded=0;exitX=1;exitY=0.675;exitDx=0;exitDy=0;exitPerimeter=0;entryX=0.013;entryY=0.688;entryDx=0;entryDy=0;entryPerimeter=0;fillColor=#008a00;strokeColor=#005700;" edge="1" parent="1" source="oFoH9oFWts9TdxYfZ8au-1" target="oFoH9oFWts9TdxYfZ8au-2">
          <mxGeometry relative="1" as="geometry">
            <mxPoint x="160" y="420" as="sourcePoint" />
            <mxPoint x="250" y="400" as="targetPoint" />
          </mxGeometry>
        </mxCell>
        <mxCell id="oFoH9oFWts9TdxYfZ8au-25" value="Train" style="edgeLabel;resizable=0;html=1;align=center;verticalAlign=middle;" connectable="0" vertex="1" parent="oFoH9oFWts9TdxYfZ8au-24">
          <mxGeometry relative="1" as="geometry" />
        </mxCell>
        <mxCell id="oFoH9oFWts9TdxYfZ8au-28" value="" style="endArrow=classic;html=1;rounded=0;exitX=1;exitY=1;exitDx=0;exitDy=0;entryX=0;entryY=1;entryDx=0;entryDy=0;fillColor=#008a00;strokeColor=#005700;" edge="1" parent="1" source="oFoH9oFWts9TdxYfZ8au-3" target="oFoH9oFWts9TdxYfZ8au-4">
          <mxGeometry relative="1" as="geometry">
            <mxPoint x="365" y="600" as="sourcePoint" />
            <mxPoint x="465" y="600" as="targetPoint" />
          </mxGeometry>
        </mxCell>
        <mxCell id="oFoH9oFWts9TdxYfZ8au-29" value="Train" style="edgeLabel;resizable=0;html=1;align=center;verticalAlign=middle;" connectable="0" vertex="1" parent="oFoH9oFWts9TdxYfZ8au-28">
          <mxGeometry relative="1" as="geometry" />
        </mxCell>
        <mxCell id="oFoH9oFWts9TdxYfZ8au-30" value="" style="endArrow=classic;html=1;rounded=0;exitX=0.5;exitY=1;exitDx=0;exitDy=0;entryX=1;entryY=0.5;entryDx=0;entryDy=0;fillColor=#008a00;strokeColor=#005700;" edge="1" parent="1" source="oFoH9oFWts9TdxYfZ8au-4" target="oFoH9oFWts9TdxYfZ8au-5">
          <mxGeometry relative="1" as="geometry">
            <mxPoint x="425" y="640" as="sourcePoint" />
            <mxPoint x="525" y="640" as="targetPoint" />
          </mxGeometry>
        </mxCell>
        <mxCell id="oFoH9oFWts9TdxYfZ8au-31" value="Train" style="edgeLabel;resizable=0;html=1;align=center;verticalAlign=middle;" connectable="0" vertex="1" parent="oFoH9oFWts9TdxYfZ8au-30">
          <mxGeometry relative="1" as="geometry" />
        </mxCell>
        <mxCell id="oFoH9oFWts9TdxYfZ8au-32" value="" style="endArrow=classic;html=1;rounded=0;entryX=0.225;entryY=0.075;entryDx=0;entryDy=0;entryPerimeter=0;exitX=0.95;exitY=0.75;exitDx=0;exitDy=0;exitPerimeter=0;fillColor=#008a00;strokeColor=#005700;" edge="1" parent="1" source="oFoH9oFWts9TdxYfZ8au-2" target="oFoH9oFWts9TdxYfZ8au-4">
          <mxGeometry relative="1" as="geometry">
            <mxPoint x="323" y="408" as="sourcePoint" />
            <mxPoint x="400" y="500" as="targetPoint" />
          </mxGeometry>
        </mxCell>
        <mxCell id="oFoH9oFWts9TdxYfZ8au-33" value="Train" style="edgeLabel;resizable=0;html=1;align=center;verticalAlign=middle;" connectable="0" vertex="1" parent="oFoH9oFWts9TdxYfZ8au-32">
          <mxGeometry relative="1" as="geometry" />
        </mxCell>
        <mxCell id="oFoH9oFWts9TdxYfZ8au-36" value="" style="endArrow=classic;html=1;rounded=0;exitX=0;exitY=1;exitDx=0;exitDy=0;entryX=0;entryY=0;entryDx=0;entryDy=0;fillColor=#008a00;strokeColor=#005700;" edge="1" parent="1" source="oFoH9oFWts9TdxYfZ8au-2" target="oFoH9oFWts9TdxYfZ8au-3">
          <mxGeometry relative="1" as="geometry">
            <mxPoint x="158" y="428" as="sourcePoint" />
            <mxPoint x="272" y="532" as="targetPoint" />
          </mxGeometry>
        </mxCell>
        <mxCell id="oFoH9oFWts9TdxYfZ8au-37" value="Train" style="edgeLabel;resizable=0;html=1;align=center;verticalAlign=middle;" connectable="0" vertex="1" parent="oFoH9oFWts9TdxYfZ8au-36">
          <mxGeometry relative="1" as="geometry" />
        </mxCell>
        <mxCell id="oFoH9oFWts9TdxYfZ8au-38" value="" style="endArrow=classic;html=1;rounded=0;exitX=0.375;exitY=0.975;exitDx=0;exitDy=0;entryX=0;entryY=0;entryDx=0;entryDy=0;exitPerimeter=0;fillColor=#0050ef;strokeColor=#001DBC;" edge="1" parent="1" source="oFoH9oFWts9TdxYfZ8au-1" target="oFoH9oFWts9TdxYfZ8au-5">
          <mxGeometry relative="1" as="geometry">
            <mxPoint x="90" y="740" as="sourcePoint" />
            <mxPoint x="220" y="860" as="targetPoint" />
          </mxGeometry>
        </mxCell>
        <mxCell id="oFoH9oFWts9TdxYfZ8au-39" value="Plane" style="edgeLabel;resizable=0;html=1;align=center;verticalAlign=middle;" connectable="0" vertex="1" parent="oFoH9oFWts9TdxYfZ8au-38">
          <mxGeometry relative="1" as="geometry" />
        </mxCell>
        <mxCell id="oFoH9oFWts9TdxYfZ8au-40" value="" style="endArrow=classic;html=1;rounded=0;exitX=0.5;exitY=1;exitDx=0;exitDy=0;entryX=0.5;entryY=0;entryDx=0;entryDy=0;fillColor=#0050ef;strokeColor=#001DBC;" edge="1" parent="1" source="oFoH9oFWts9TdxYfZ8au-3" target="oFoH9oFWts9TdxYfZ8au-5">
          <mxGeometry relative="1" as="geometry">
            <mxPoint x="100" y="750" as="sourcePoint" />
            <mxPoint x="230" y="870" as="targetPoint" />
          </mxGeometry>
        </mxCell>
        <mxCell id="oFoH9oFWts9TdxYfZ8au-41" value="Plane" style="edgeLabel;resizable=0;html=1;align=center;verticalAlign=middle;" connectable="0" vertex="1" parent="oFoH9oFWts9TdxYfZ8au-40">
          <mxGeometry relative="1" as="geometry" />
        </mxCell>
        <mxCell id="oFoH9oFWts9TdxYfZ8au-42" value="" style="endArrow=classic;html=1;rounded=0;exitX=0.75;exitY=0.925;exitDx=0;exitDy=0;entryX=0.05;entryY=0.225;entryDx=0;entryDy=0;exitPerimeter=0;entryPerimeter=0;fillColor=#0050ef;strokeColor=#001DBC;" edge="1" parent="1" source="oFoH9oFWts9TdxYfZ8au-2" target="oFoH9oFWts9TdxYfZ8au-4">
          <mxGeometry relative="1" as="geometry">
            <mxPoint x="110" y="760" as="sourcePoint" />
            <mxPoint x="240" y="880" as="targetPoint" />
          </mxGeometry>
        </mxCell>
        <mxCell id="oFoH9oFWts9TdxYfZ8au-43" value="Plane" style="edgeLabel;resizable=0;html=1;align=center;verticalAlign=middle;" connectable="0" vertex="1" parent="oFoH9oFWts9TdxYfZ8au-42">
          <mxGeometry relative="1" as="geometry" />
        </mxCell>
        <mxCell id="oFoH9oFWts9TdxYfZ8au-50" value="" style="endArrow=classic;html=1;rounded=0;exitX=0.375;exitY=0.975;exitDx=0;exitDy=0;entryX=-0.012;entryY=0.6;entryDx=0;entryDy=0;exitPerimeter=0;entryPerimeter=0;fillColor=#0050ef;strokeColor=#001DBC;" edge="1" parent="1" source="oFoH9oFWts9TdxYfZ8au-1" target="oFoH9oFWts9TdxYfZ8au-3">
          <mxGeometry relative="1" as="geometry">
            <mxPoint x="150" y="800" as="sourcePoint" />
            <mxPoint x="280" y="920" as="targetPoint" />
          </mxGeometry>
        </mxCell>
        <mxCell id="oFoH9oFWts9TdxYfZ8au-51" value="Plane" style="edgeLabel;resizable=0;html=1;align=center;verticalAlign=middle;" connectable="0" vertex="1" parent="oFoH9oFWts9TdxYfZ8au-50">
          <mxGeometry relative="1" as="geometry" />
        </mxCell>
        <mxCell id="oFoH9oFWts9TdxYfZ8au-52" value="" style="endArrow=classic;html=1;rounded=0;exitX=0.675;exitY=0.963;exitDx=0;exitDy=0;entryX=0.025;entryY=0.338;entryDx=0;entryDy=0;exitPerimeter=0;entryPerimeter=0;fillColor=#008a00;strokeColor=#005700;" edge="1" parent="1" source="oFoH9oFWts9TdxYfZ8au-1" target="oFoH9oFWts9TdxYfZ8au-3">
          <mxGeometry relative="1" as="geometry">
            <mxPoint x="158" y="428" as="sourcePoint" />
            <mxPoint x="272" y="428" as="targetPoint" />
            <Array as="points">
              <mxPoint x="190" y="480" />
            </Array>
          </mxGeometry>
        </mxCell>
        <mxCell id="oFoH9oFWts9TdxYfZ8au-53" value="Train" style="edgeLabel;resizable=0;html=1;align=center;verticalAlign=middle;" connectable="0" vertex="1" parent="oFoH9oFWts9TdxYfZ8au-52">
          <mxGeometry relative="1" as="geometry" />
        </mxCell>
      </root>
    </mxGraphModel>
  </diagram>
</mxfile>
